<svg width="324" height="280" viewBox="0 0 324 280" fill="none" xmlns="http://www.w3.org/2000/svg">
<path d="M202.496 264.441C202.496 264.441 169.812 226.469 131.495 237.079C113.871 244.283 103.497 249.364 97.8078 250.481C92.1746 251.486 78.9005 252.547 70.8134 247.075C85.6492 260.644 99.4253 261.482 109.576 259.583C119.727 257.629 129.878 249.364 132.499 247.242C135.176 245.176 144.825 233.673 163.565 241.1C177.118 247.465 194.352 266.172 197.252 269.523L202.495 264.441" fill="#FFD700"/>
<path d="M131.274 236.355C131.218 236.355 116.103 242.721 116.103 242.721C107.235 246.518 101.379 248.975 97.6423 249.701C95.9133 250.036 80.4083 252.66 71.2614 246.406L70.3132 247.579C70.3132 247.635 70.369 247.69 70.369 247.69C82.4718 258.691 95.6901 262.935 109.745 260.31C116.494 259.026 124.302 254.894 132.891 247.914C133.003 247.858 134.007 246.964 134.007 246.964C137.52 243.781 146.835 235.293 163.288 241.827C176.394 247.969 193.182 265.894 196.64 270.027L197.198 270.641L203.557 264.498L203.055 263.94C202.72 263.549 169.646 225.745 131.274 236.354L131.274 236.355ZM97.9767 251.208C101.825 250.482 107.737 247.97 116.661 244.117L131.775 237.806C167.47 227.922 198.478 261.148 201.438 264.387C200.657 265.169 198.092 267.626 197.255 268.407C192.96 263.494 176.842 246.462 163.847 240.431C146.501 233.507 136.685 242.441 132.948 245.847L132.056 246.685C123.578 253.498 115.993 257.574 109.412 258.803C97.4204 261.092 86.0424 257.853 75.4455 249.756C84.8715 253.051 96.4165 251.487 97.9782 251.208" fill="white"/>
<path d="M124.19 235.348C124.19 235.348 103.107 239.871 95.1874 242.16C87.2678 244.506 60.4961 244.952 44.8811 221.164C57.263 231.327 72.4334 231.327 78.5127 231.103C84.6478 230.936 100.432 233.281 108.184 234.733C108.017 233.281 100.209 231.55 97.8661 230.322C95.5236 229.093 88.9426 227.139 80.9666 209.716C78.2895 204.411 77.8433 201.452 76.0029 199.832C79.3493 200.335 85.875 207.37 87.8828 209.493C89.8907 211.615 102.049 225.63 108.965 229.204C115.881 232.834 119.284 234.565 124.192 235.347" fill="#FFD700"/>
<path d="M75.5004 200.447C76.5043 201.285 77.0621 202.625 77.8986 204.691L80.2969 210.052C87.7146 226.302 93.9056 229.261 96.8615 230.713L97.475 230.993L101.77 232.556C102.216 232.724 102.829 232.947 103.387 233.115C95.4115 231.83 83.7549 230.211 78.512 230.378C64.9592 230.769 53.8045 227.475 45.3824 220.55L44.2112 221.611C59.2699 244.45 85.6512 245.79 95.4126 242.887C103.165 240.597 124.136 236.186 124.359 236.13L124.303 234.622C119.451 233.784 116.049 232.053 109.3 228.535C103.444 225.464 93.5165 214.519 89.7795 210.387L88.441 208.935L87.939 208.433C83.756 204.021 79.0708 199.498 76.1149 199.107L75.5014 200.447L75.5004 200.447ZM102.216 231.104L98.2005 229.652L97.5312 229.317C94.9098 228.089 88.8862 225.129 81.6914 209.382C81.6914 209.326 79.2931 204.077 79.2931 204.077C78.8469 202.904 78.2892 202.346 77.7872 201.508C80.8548 203.295 85.0379 207.595 86.8224 209.493L87.3244 209.996L88.6072 211.448C92.3998 215.58 102.495 226.748 108.63 229.931C113.873 232.668 117.163 234.343 120.677 235.348C114.374 236.744 100.933 239.648 94.9652 241.434C86.0969 244.059 63.1181 242.886 48.3386 224.403C56.4815 229.652 66.5765 232.276 78.5681 231.885C84.4241 231.718 99.6502 233.896 108.017 235.459L109.02 235.682L108.909 234.621C108.909 234.398 108.463 234.231 108.295 234.007L108.24 233.951C107.514 233.058 105.841 232.276 102.216 231.103" fill="white"/>
<path d="M85.2604 226.862C85.2604 226.862 74.6635 223.959 66.7992 222.842C58.8795 221.781 31.2715 214.801 20.5071 182.357C31.3831 195.033 33.8371 195.815 40.195 198.997C46.6088 202.18 65.9065 213.181 72.5994 219.212L74.5515 220.328C74.5515 220.328 75.2207 219.491 72.2647 216.978C69.4203 214.409 59.66 205.53 58.1541 185.651C56.9272 176.884 54.975 168.899 54.3615 167.838C58.7676 170.351 63.9545 180.514 65.0142 183.362C66.0739 186.266 73.213 206.313 74.1611 208.714C75.0535 211.059 80.854 223.791 85.26 226.862" fill="#FFD700"/>
<path d="M53.6896 168.173C54.1916 169.067 56.1436 176.829 57.3707 185.764C58.0957 195.089 61.1633 208.212 71.7604 217.537C71.8162 217.537 71.8162 217.537 71.8162 217.593C64.4538 211.507 46.9412 201.511 40.5274 198.328L39.5235 197.77C34.002 195.034 31.2131 193.693 21.1181 181.855L19.7795 182.581C31.492 217.929 63.1157 223.177 66.6853 223.624C74.4379 224.63 84.9232 227.645 85.0348 227.645L85.7041 226.305C81.6326 223.401 75.9436 211.284 74.8281 208.436L65.737 183.14C64.7331 180.515 59.4902 169.905 54.7498 167.169L53.6901 168.174L53.6896 168.173ZM75.1625 220.776C75.3299 220.609 75.3856 220.386 75.3856 220.106C75.3856 219.38 74.8837 218.208 72.7643 216.421C62.6135 207.375 59.6018 194.699 58.9323 185.596C58.0957 179.566 56.8687 173.702 55.9205 170.296C59.6016 173.981 63.3941 181.24 64.2868 183.642L73.4337 208.994C74.0472 210.613 78.6207 220.664 82.915 225.467C79.3455 224.574 72.4851 222.842 66.8524 222.117C63.6175 221.67 35.6748 216.7 23.1259 186.434C30.7111 194.866 33.8345 196.709 38.7982 199.166L39.8579 199.668C46.495 203.019 65.514 213.852 72.0952 219.771C72.2068 219.883 74.2147 221 74.2147 221L74.7724 221.335L75.1628 220.777" fill="white"/>
<path d="M55.7542 200.394C55.7542 200.394 42.48 192.632 35.1735 186.936C27.867 181.185 7.34258 166.219 9.46158 139.639C12.6407 148.238 17.8278 156.056 23.4605 160.803C29.0937 165.605 39.3003 180.682 41.7543 184.2C44.1525 187.718 45.8257 188.667 45.8257 188.667C45.8257 188.667 46.6066 186.936 43.8737 183.921C41.8659 180.682 38.2405 173.087 40.1926 156.503C42.6467 141.091 43.539 137.405 43.0928 135.004C45.2122 140.42 48.0007 152.091 49.0605 170.352C49.674 180.682 50.8452 188.667 52.1838 192.185C53.5781 195.648 55.7533 200.394 55.7533 200.394" fill="#FFD700"/>
<path d="M42.3683 135.172C42.4241 135.507 42.4241 135.898 42.4241 136.345C42.4241 138.076 41.978 140.812 41.0298 146.62L39.4681 156.392C39.0777 159.687 38.8546 162.702 38.8546 165.55C38.8546 173.368 40.3047 179.678 43.2049 184.312C44.1531 185.318 44.5993 186.099 44.8781 186.769C44.2088 186.099 43.3722 185.206 42.3683 183.754L41.5317 182.581C38.1853 177.667 29.1498 164.656 23.9628 160.245C18.4413 155.554 13.31 147.792 10.1308 139.36L8.68069 139.584C6.61704 165.606 25.6919 180.46 33.8348 186.881L34.6714 187.495C41.9221 193.191 55.1963 201.009 55.3075 201.065L56.4229 200.115L52.9092 191.907C51.5706 188.333 50.3994 180.292 49.7859 170.296C48.5031 148.183 44.878 137.461 43.8182 134.725L42.3681 135.172L42.3683 135.172ZM42.5357 146.843C43.1492 143.325 43.4838 141.091 43.7069 139.304C45.2128 144.554 47.3322 154.381 48.2804 170.408C48.8939 180.515 50.0651 188.724 51.5153 192.465C51.5153 192.465 53.0769 196.095 54.0808 198.552C50.1209 196.151 41.1411 190.623 35.6196 186.323L34.783 185.653C27.2537 179.734 10.075 166.332 10.075 143.437V142.599C13.3657 150.194 17.8277 157.062 22.9589 161.418C28.0343 165.662 36.9579 178.617 40.3046 183.475L41.0854 184.648C43.5952 188.221 45.38 189.283 45.4357 189.338L46.2166 189.785L46.4954 188.947C46.6628 188.724 47.3878 186.658 44.4318 183.363C40.7507 177.444 39.5797 168.398 40.9738 156.615L42.5355 146.843" fill="white"/>
<path d="M33.6681 163.369C33.6681 163.369 29.0947 156.222 24.9674 151.531C20.8402 146.952 2.60219 126.291 12.0277 91.4448C12.0277 99.5417 13.1432 104.121 13.9798 107.025C14.9279 109.873 23.9631 129.305 24.8558 134.555C25.7482 139.804 27.2541 149.687 29.3735 150.804C30.1543 150.302 29.262 148.571 28.9831 146.951C28.6485 145.388 26.0271 131.874 33.9469 117.188C41.1417 104.288 42.4801 103.06 43.5399 98.5923C43.8745 107.025 41.1416 123.721 38.9664 130.757C36.847 137.737 31.1021 153.987 33.6677 163.368" fill="#FFD700"/>
<path d="M24.4096 152.09C28.4253 156.613 32.9986 163.705 32.9986 163.761L34.393 163.146C32.162 154.993 36.5682 141.033 38.9107 133.495L39.6915 130.982C41.7552 124.281 44.6552 107.361 44.3208 98.5381L42.8148 98.3705C42.034 101.442 41.1974 103.005 38.2414 108.087L33.2777 116.854C28.5927 125.509 27.5329 133.83 27.5329 139.637C27.5329 143.043 27.9233 145.389 28.1464 146.617C27.1425 143.211 26.2501 138.241 25.7481 135.561L25.5808 134.444C24.9672 130.758 20.7287 120.875 17.6053 113.671L14.7609 106.803C13.9243 104.123 12.8088 99.5434 12.8088 91.4465L11.3029 91.2231C5.11197 114.062 9.797 135.673 24.4096 152.09H24.4096ZM25.525 151.029C15.3743 139.693 10.1872 125.733 10.1872 110.6C10.1872 106.356 10.7449 102.056 11.5258 97.7001C11.9162 102.223 12.6413 105.239 13.2548 107.249L16.2108 114.285C19.1111 120.986 23.5173 131.205 24.0751 134.667L24.2424 135.839C25.6367 143.713 26.9195 150.358 29.0389 151.475L29.4294 151.642L29.8198 151.419C30.266 151.14 30.4333 150.637 30.4333 150.135C30.4333 149.52 30.266 148.85 30.0429 148.18L29.7083 146.84C29.4852 145.835 29.0389 143.266 29.0389 139.58C29.0389 133.996 30.0986 125.955 34.6721 117.579L39.58 108.868C40.9743 106.411 41.9225 104.791 42.5918 103.339C42.1456 112.386 39.9147 124.95 38.2414 130.534L37.4606 133.047C35.397 139.58 32.2178 149.576 32.2178 157.785C32.2178 158.678 32.4409 159.46 32.5524 160.298C30.8234 157.785 28.1463 153.988 25.525 151.028" fill="white"/>
<path d="M26.0271 120.987C26.0271 120.987 23.2942 109.874 19.9478 100.995C16.6014 92.061 10.1873 71.3436 26.8077 49.7319C23.294 58.3314 24.6883 63.9155 24.6883 64.8648C24.6883 65.814 26.7519 84.9119 26.8077 89.6581C26.8635 95.7447 25.748 106.243 25.748 106.243C25.748 106.243 26.1384 107.527 26.9751 106.243C27.477 105.461 28.5925 91.8914 36.7355 83.7945C44.2649 76.256 50.4 70.5602 52.0733 67.433C52.0733 72.9612 48.8942 81.114 46.2727 85.5253C43.7071 89.9926 33.0544 104.623 30.6004 109.537C28.2021 114.507 26.0269 120.37 26.0269 120.985" fill="#FFD700"/>
<path d="M19.2226 101.274C22.5133 109.985 25.2461 121.098 25.3019 121.21L26.8079 121.042C26.8636 120.428 28.8715 114.899 31.3256 109.93C32.7199 107.026 37.0146 100.716 40.8627 95.1318L46.942 85.9179C49.7865 81.06 52.798 72.9072 52.798 67.4344L51.4037 67.0435C50.0651 69.5563 45.7147 73.8563 40.1373 79.3286L36.1774 83.2375C29.4287 89.9385 27.365 100.436 26.5844 104.346C26.5844 104.346 26.4171 105.239 26.3613 105.63C26.6402 104.234 27.5325 89.6593 27.5325 89.6593L25.9708 70.0588L25.4131 64.1399C25.3015 63.4698 25.19 62.4088 25.19 61.0128C25.19 58.4441 25.6362 54.7025 27.4767 50.0123L26.1939 49.2305C14.4256 64.5869 12.0833 82.0653 19.2224 101.275L19.2226 101.274ZM20.6728 100.716C18.0514 93.6798 16.7129 86.867 16.7129 80.3336C16.7129 71.1757 19.4457 62.5762 24.5772 54.4793C23.9636 57.048 23.6848 59.3373 23.6848 61.0126C23.6848 62.4645 23.7963 63.5813 23.8521 64.3072C23.9636 64.8657 24.4098 70.2262 24.4098 70.2262L26.0273 89.659L24.9676 106.132C25.0791 106.635 25.358 107.473 26.1388 107.528C26.6965 107.64 27.1985 107.305 27.589 106.635L28.0909 104.625C28.8718 100.827 30.8238 90.7201 37.2378 84.3544L41.2535 80.3897C45.827 75.8666 48.9503 72.6277 50.9582 70.0031C50.2331 75.2523 47.6675 81.6739 45.6036 85.1918L39.5802 94.2938C35.7318 99.8779 31.3814 106.244 29.9313 109.204C28.4812 112.163 27.0311 115.737 26.1387 118.25C25.079 114.452 23.0712 107.026 20.673 100.715" fill="white"/>
<path d="M30.8234 83.128C30.8234 83.128 32.0504 80.0567 30.9349 67.6598C29.7637 55.2629 29.2617 38.3434 48.448 26.9517C43.6515 34.9927 42.8707 36.3891 41.4207 42.9783C39.9705 49.5116 38.3531 60.0101 35.7317 65.9291C34.672 68.8328 34.0027 71.1224 34.5046 71.4014C34.9508 71.6806 35.1739 71.178 35.5086 70.1729C35.9548 69.1677 39.8589 60.2888 47.7789 54.6488C55.6985 49.0088 62.8375 43.3688 65.5148 37.7847C64.3436 48.1155 60.4394 51.8006 56.5354 56.994C52.2966 62.634 37.0703 74.4165 34.5047 78.2693C31.8834 82.0666 30.8236 83.1273 30.8236 83.1273" fill="#FFD700"/>
<path d="M30.154 67.7136C31.2695 79.6079 30.0982 82.7905 30.0982 82.7905L31.3253 83.6839L35.1179 78.6583C36.2892 76.9272 40.4166 73.2973 44.7109 69.4444C49.7305 65.033 54.9175 60.4542 57.1487 57.4388L58.7103 55.4285C62.0568 51.1288 65.2357 47.0521 66.2955 37.8942L64.8453 37.4474C62.1682 42.9757 54.862 48.6715 47.3322 54.0321C41.5874 58.1085 37.962 63.8043 36.1217 67.2105C36.2332 66.8197 36.289 66.7079 36.4563 66.2054C38.4642 61.7381 39.8027 54.7023 41.0855 48.5597L42.1452 43.1433C43.5954 36.7772 44.2647 35.4931 49.1168 27.3403L48.0571 26.2793C27.4206 38.5644 29.2056 57.5505 30.1537 67.7136L30.154 67.7136ZM32.1618 76.7038C32.1618 74.4143 32.0503 71.4546 31.6599 67.6018C31.4368 65.2006 31.2137 62.2967 31.2137 59.1141C31.2137 50.0679 33.8908 38.8438 45.7151 30.1326C42.759 35.1582 41.8666 37.3361 40.6955 42.8085L39.5243 48.2249C38.353 54.3115 36.9587 61.2356 35.0066 65.6474C33.9469 68.4954 33.5565 70.0588 33.5565 70.9525C33.5565 71.5668 33.7796 71.846 34.1142 72.0693L34.3931 72.2369L35.0624 72.181C35.6759 71.9576 35.9547 71.2875 36.2336 70.3941C36.624 69.5007 40.5839 60.7336 48.2247 55.2613C54.5273 50.794 60.495 46.0475 64.0645 41.3567C62.7817 47.4434 60.3276 50.8495 57.4832 54.5352L55.9216 56.4896C53.7464 59.3933 48.448 64.1399 43.7071 68.3281C39.1337 72.4045 35.1181 75.9224 33.835 77.8209C33.835 77.8209 32.9427 79.0494 32.0503 80.222C32.106 79.2728 32.1618 78.2118 32.1618 76.7041" fill="white"/>
<path d="M45.1572 50.2374C45.1572 50.2374 47.6671 37.1149 52.6866 29.3528C57.7061 21.5908 68.136 14.7226 79.1232 11.3159C75.2749 14.5547 72.9323 17.4585 71.5939 19.8036C70.2553 22.0931 61.9451 35.1041 58.1523 39.2364C54.2481 43.3687 48.0015 47.1102 45.1572 50.2369" fill="#FFD700"/>
<path d="M52.0196 28.9045C47.0001 36.7225 44.5461 49.5656 44.4344 50.0681L45.773 50.7382L51.3504 45.9917L58.6569 39.7374C62.6168 35.4934 70.983 22.4266 72.2655 20.1928C73.8272 17.4566 76.2812 14.6646 79.6279 11.8723L78.9028 10.5879C67.302 14.1617 57.0396 21.1976 52.02 28.9038L52.0196 28.9045ZM53.3582 29.7421C57.597 23.1529 66.0746 17.178 75.7792 13.4365C73.8272 15.4468 72.0982 17.4571 70.9271 19.4114C69.6443 21.5892 61.39 34.5442 57.5413 38.7324C57.5413 38.7324 48.1158 46.7175 46.3866 48.1693C47.3348 44.1488 49.6773 35.4375 53.3582 29.7417" fill="white"/>
<path d="M124.411 265.448C124.411 265.448 156.146 226.639 194.685 236.299C212.533 243.056 222.962 247.858 228.707 248.752C234.396 249.701 247.614 250.427 255.59 244.676C241.088 258.636 227.313 259.864 217.161 258.189C206.955 256.514 196.636 248.529 193.96 246.463C191.283 244.397 181.243 233.228 162.782 241.102C149.285 247.803 132.553 266.901 129.764 270.363L124.41 265.449" fill="#FFD700"/>
<path d="M123.8 264.947L123.354 265.505L129.879 271.48L130.381 270.81C133.783 266.622 150.181 248.25 163.12 241.773C179.35 234.849 188.888 243.113 192.457 246.24L193.461 247.078C202.329 253.835 210.193 257.855 217.053 258.972C231.108 261.206 244.271 256.627 256.039 245.347C256.095 245.291 256.095 245.291 256.095 245.235L255.147 244.063C246.111 250.54 230.55 248.306 228.822 248.027C225.085 247.413 219.284 245.124 210.472 241.606L194.967 235.575C156.316 225.858 124.135 264.556 123.798 264.947L123.8 264.947ZM194.521 237.027L209.915 243.057C218.839 246.575 224.695 248.92 228.599 249.535C230.049 249.758 241.037 251.266 250.184 248.139C240.033 256.068 229.046 259.307 217.277 257.408C210.752 256.347 203.055 252.495 194.522 245.905C194.41 245.849 193.462 245.068 193.462 245.068C189.669 241.773 179.63 233.062 162.452 240.433C149.68 246.743 133.896 264.165 129.713 269.247C128.876 268.521 126.255 266.064 125.474 265.394C128.318 262.043 158.492 228.036 194.521 237.027" fill="white"/>
<path d="M201.995 234.398C201.995 234.398 223.189 238.307 231.109 240.429C239.085 242.551 265.912 242.328 280.973 218.148C268.814 228.646 253.588 229.038 247.509 228.982C241.43 228.926 225.646 231.662 218.005 233.337C218.116 231.83 225.868 229.931 228.211 228.647C230.498 227.362 237.024 225.24 244.553 207.595C247.174 202.233 247.509 199.218 249.349 197.599C246.003 198.213 239.645 205.417 237.693 207.539C235.685 209.772 223.861 224.068 217.056 227.809C210.252 231.662 206.85 233.393 201.998 234.398" fill="#FFD700"/>
<path d="M237.686 206.422L237.128 207.037L235.622 208.712C231.997 212.9 222.404 224.012 216.715 227.14C209.799 231.048 206.508 232.668 201.823 233.617V235.125C201.99 235.181 223.073 239.089 230.937 241.155C240.753 243.836 267.134 241.826 281.58 218.54L280.465 217.59C272.154 224.738 261.055 228.312 247.558 228.2C242.26 228.144 230.715 230.043 222.683 231.606C223.241 231.383 223.855 231.16 224.357 230.992L228.54 229.317L229.209 228.982C231.886 227.642 238.188 224.403 245.272 207.929L247.558 202.513C248.339 200.447 248.897 199.051 249.789 198.213L249.176 196.873C246.276 197.376 241.758 201.955 237.687 206.422L237.686 206.422ZM217.44 228.536C223.352 225.185 232.778 214.352 236.793 209.717L238.243 208.098L238.857 207.428C240.586 205.529 244.602 201.229 247.558 199.331C247.112 200.168 246.554 200.783 246.108 201.955L243.877 207.26C237.017 223.287 231.049 226.302 228.483 227.642L227.814 227.978L223.854 229.541C220.229 230.825 218.611 231.663 217.886 232.557L217.83 232.612C217.663 232.836 217.273 233.059 217.217 233.282L217.161 234.343L218.165 234.064C225.304 232.501 241.255 229.709 247.502 229.764C259.493 229.82 269.532 226.972 277.564 221.444C263.174 240.374 240.251 242.105 231.328 239.704C225.36 238.085 211.807 235.46 205.449 234.288C208.851 233.171 212.086 231.495 217.44 228.536L217.44 228.536Z" fill="white"/>
<path d="M240.756 224.906C240.756 224.906 251.186 221.667 259.05 220.439C266.969 219.154 294.411 211.448 304.338 178.725C293.797 191.681 291.399 192.518 285.096 195.924C278.794 199.219 259.719 210.666 253.138 216.865L251.186 218.037C251.186 218.037 250.628 217.256 253.417 214.687C256.261 212.062 265.799 202.904 266.858 182.969C267.862 174.202 269.647 166.217 270.261 165.044C265.91 167.724 260.946 178.055 259.942 180.903C258.939 183.807 252.246 204.021 251.409 206.422C250.517 208.824 245.051 221.667 240.756 224.906" fill="#FFD700"/>
<path d="M259.217 180.682L250.684 206.202C249.569 209.161 244.214 221.335 240.254 224.294L240.923 225.634C241.035 225.634 251.465 222.395 259.217 221.167C262.731 220.608 294.243 214.578 305.119 178.951L303.78 178.225C293.853 190.398 291.287 191.739 285.71 194.698L284.706 195.201C278.459 198.551 261.449 208.826 254.03 215.136C264.349 205.476 267.137 192.353 267.639 183.028C268.643 174.037 270.372 166.331 270.93 165.437L269.814 164.376C265.129 167.28 260.165 178.057 259.217 180.682V180.682ZM252.134 206.704L260.667 181.185C261.504 178.728 265.129 171.413 268.699 167.616C267.862 171.022 266.802 176.774 266.077 182.86C265.352 196.095 260.946 206.593 252.915 214.131C250.963 215.918 250.405 217.091 250.405 217.817C250.405 218.096 250.461 218.375 250.628 218.543L251.019 219.045L253.528 217.538C260.054 211.451 278.849 200.115 285.431 196.597L286.379 196.095C291.343 193.47 294.41 191.572 301.828 182.86C290.06 213.461 262.229 219.101 258.938 219.66C253.361 220.553 246.556 222.396 242.987 223.457C247.17 218.599 251.408 208.715 252.134 206.705" fill="white"/>
<path d="M269.589 197.711C269.589 197.711 282.639 189.558 289.834 183.639C296.973 177.776 317.163 162.308 314.431 135.783C311.419 144.438 306.455 152.368 300.933 157.282C295.412 162.196 285.595 177.552 283.253 181.126C280.855 184.7 279.237 185.705 279.237 185.705C279.237 185.705 278.401 183.974 281.078 180.847C282.974 177.664 286.488 169.902 284.09 153.429C281.301 138.017 280.353 134.387 280.687 132.042C278.735 137.458 276.226 149.129 275.612 167.446C275.277 177.832 274.218 185.817 272.935 189.335C271.652 192.909 269.589 197.712 269.589 197.712" fill="#FFD700"/>
<path d="M274.834 167.446C274.5 177.441 273.496 185.538 272.213 189.057L268.922 197.433L270.038 198.382C270.149 198.271 283.2 190.118 290.339 184.255L291.176 183.584C299.151 176.995 317.892 161.695 315.214 135.673L313.708 135.505C310.752 144.105 305.9 151.867 300.434 156.725C295.359 161.248 286.658 174.482 283.368 179.508L282.587 180.736C281.583 182.188 280.802 183.082 280.189 183.752C280.412 183.137 280.802 182.356 281.639 181.351C284.316 176.883 285.655 170.908 285.655 163.649C285.655 160.41 285.431 156.948 284.874 153.318C284.874 153.262 283.033 143.379 283.033 143.379C281.918 137.46 281.416 134.779 281.416 133.104C281.416 132.769 281.416 132.434 281.472 132.155L280.021 131.764C278.962 134.556 275.615 145.389 274.834 167.446L274.834 167.446ZM273.663 189.615C275.002 185.929 276.061 177.665 276.396 167.501C276.954 151.475 278.85 141.647 280.244 136.342C280.467 138.073 280.858 140.307 281.527 143.657L283.368 153.541C283.87 157.171 284.148 160.577 284.148 163.704C284.148 170.628 282.866 176.324 280.412 180.457C278.738 182.411 278.348 183.975 278.348 184.924C278.348 185.538 278.515 185.929 278.571 185.985L278.906 186.822L279.631 186.376C279.742 186.32 281.471 185.203 283.87 181.573L284.706 180.345C287.941 175.375 296.53 162.253 301.494 157.897C306.458 153.429 310.753 146.449 313.82 138.799C313.876 139.413 313.932 140.083 313.932 140.697C313.932 162.922 297.478 176.436 290.172 182.411L289.336 183.081C283.925 187.548 275.113 193.3 271.209 195.813C272.158 193.411 273.663 189.614 273.663 189.614" fill="white"/>
<path d="M290.783 160.074C290.783 160.074 295.189 152.814 299.205 148.068C303.221 143.377 321.013 122.214 310.75 87.6494C310.918 95.7463 309.97 100.381 309.133 103.285C308.296 106.133 299.763 125.789 298.982 131.038C298.146 136.343 296.863 146.227 294.743 147.4C294.018 146.953 294.911 145.166 295.134 143.602C295.413 141.983 297.699 128.358 289.445 113.951C281.971 101.275 280.577 99.9901 279.461 95.5788C279.294 104.011 282.473 120.652 284.704 127.576C287.047 134.556 293.182 150.638 290.784 160.075" fill="#FFD700"/>
<path d="M309.971 87.6477V89.7139C309.971 95.019 309.469 99.3744 308.41 103.06L305.621 110.264C302.721 117.467 298.761 127.351 298.203 130.925L297.98 132.433C297.589 135.169 296.864 139.804 295.972 143.043C296.139 141.926 296.418 140.027 296.418 137.235C296.418 131.427 295.302 122.66 290.06 113.558L284.872 104.903C281.861 99.9328 280.968 98.3692 280.187 95.4097L278.626 95.5772C278.514 104.288 281.805 121.153 283.98 127.854L284.872 130.422C287.382 137.849 292.123 151.698 290.059 159.906L291.454 160.465C291.509 160.409 295.86 153.205 299.82 148.57C314.042 131.818 318.169 110.096 311.477 87.4243L309.971 87.6477L309.971 87.6477ZM295.135 148.066C297.255 146.894 298.37 140.36 299.486 132.654L299.709 131.202C300.267 127.74 304.338 117.577 307.015 110.82L309.86 103.505C310.418 101.55 310.975 98.1436 311.254 93.5651C312.37 98.5349 313.039 103.449 313.039 108.251C313.039 122.77 308.187 136.339 298.649 147.564C296.139 150.523 293.574 154.32 291.9 156.889C291.956 156.275 292.124 155.772 292.124 155.158C292.124 146.894 288.61 136.563 286.323 129.918L285.431 127.349C283.646 121.765 281.192 109.368 280.523 100.378C281.248 101.774 282.14 103.338 283.59 105.683L288.777 114.339C293.797 123.162 294.857 131.594 294.857 137.178C294.857 140.305 294.522 142.594 294.41 143.432C294.355 143.432 294.02 144.884 294.02 144.884C293.908 145.554 293.685 146.168 293.685 146.727C293.685 147.285 293.853 147.788 294.355 148.067L294.745 148.29L295.135 148.067" fill="white"/>
<path d="M297.42 117.58C297.42 117.58 299.93 106.356 303.053 97.3656C306.176 88.3753 312.088 67.5462 295.022 46.3286C298.703 54.8163 297.476 60.4563 297.532 61.4055C297.532 62.3549 295.858 81.5086 295.97 86.2548C296.026 92.3414 297.42 102.784 297.42 102.784C297.42 102.784 297.03 104.068 296.193 102.84C295.635 102.002 294.241 88.4885 285.931 80.6152C278.178 73.2998 271.932 67.7716 270.202 64.6445C270.314 70.2286 273.716 78.2137 276.393 82.6255C279.07 86.981 290.058 101.388 292.623 106.246C295.133 111.104 297.42 116.912 297.42 117.582" fill="#FFD700"/>
<path d="M294.297 46.6617C296.528 51.6315 296.918 55.5961 296.918 58.1648C296.918 59.2816 296.862 60.1192 296.806 60.6777L296.36 66.2618L295.189 86.253C295.189 86.253 296.081 96.4161 296.472 100.827C295.524 96.5276 293.293 86.532 286.433 80.1105C286.433 80.0546 282.194 76.034 282.194 76.034C276.616 70.7848 272.211 66.6525 270.872 64.2515L269.422 64.6423C269.533 70.1146 272.768 78.1561 275.724 83.0141L282.083 92.1721C286.042 97.5885 290.449 103.787 291.899 106.579C294.52 111.549 296.584 117.022 296.64 117.636L298.201 117.747C298.201 117.636 300.711 106.467 303.779 97.5888C310.527 78.3796 307.794 60.957 295.58 45.8242L294.297 46.6619L294.297 46.6617ZM297.029 104.122C297.81 104.01 298.089 103.172 298.145 103.005C298.145 102.391 296.695 86.2526 296.695 86.2526L297.922 66.429L298.257 61.4034C298.312 60.5658 298.424 59.5048 298.424 58.2204C298.424 56.3777 298.033 53.809 297.308 51.0169C302.886 59.2815 305.842 68.2158 305.842 77.8204C305.842 84.0189 304.67 90.4404 302.328 97.0856C300.097 103.507 298.201 110.99 297.308 114.787C296.36 112.33 294.854 108.812 293.293 105.853C291.731 102.949 287.269 96.7507 283.365 91.2784L277.063 82.1763C274.608 78.2116 272.099 72.125 271.262 67.1553C273.325 69.6681 276.505 72.7953 281.134 77.2066L285.429 81.1713C291.954 87.3697 294.073 97.0861 294.966 101.218L295.523 103.229C295.97 103.899 296.472 104.178 297.029 104.122" fill="white"/>
<path d="M291.789 79.7741C291.789 79.7741 290.506 76.7586 291.343 64.3618C292.18 51.909 292.291 34.9895 272.882 24.0444C277.846 32.0296 278.627 33.426 280.244 39.9593C281.862 46.4367 283.758 56.8793 286.491 62.7424C287.606 65.6461 288.387 67.8798 287.885 68.1593C287.383 68.4943 287.16 67.9359 286.77 66.9865C286.379 65.9814 282.196 57.2142 274.221 51.7978C266.134 46.3255 258.883 40.8532 256.095 35.3804C257.433 45.6553 261.449 49.2291 265.465 54.3107C269.815 59.8389 285.32 71.2306 287.997 74.9722C290.73 78.7693 291.79 79.7745 291.79 79.7745" fill="#FFD700"/>
<path d="M272.211 24.4931C277.231 32.5341 277.956 33.8187 279.518 40.1285L280.689 45.2659C282.084 51.4643 283.645 58.5002 285.765 63.0792C285.876 63.3585 286.099 63.9169 286.267 64.3636C284.482 61.1248 280.745 55.2616 274.61 51.1293C266.969 45.9918 259.495 40.4077 256.762 35.0472L255.312 35.4939C256.539 44.596 259.774 48.5606 263.288 52.8047L264.849 54.7591C267.192 57.7745 272.546 62.2417 277.622 66.5976C282.028 70.283 286.155 73.7452 287.382 75.4765L291.286 80.3345L292.513 79.441C292.457 79.441 291.286 76.3139 292.123 64.4195C292.792 54.1447 294.075 35.1026 273.271 23.376L272.212 24.4928L272.211 24.4931ZM288.274 68.7751C288.609 68.6076 288.776 68.2725 288.776 67.77C288.776 66.8765 288.274 65.313 287.214 62.4649C285.151 58.0534 283.533 50.7382 282.195 44.9305L280.968 39.7372C279.629 34.2649 278.681 32.1429 275.669 27.1172C287.939 35.6049 290.839 46.6618 290.839 57.4387C290.839 59.7841 290.728 62.0736 290.616 64.307C290.393 67.4341 290.337 69.947 290.337 71.9572C290.337 74.1909 290.393 75.6985 290.561 76.927C289.612 75.7542 288.664 74.5816 288.664 74.5816C287.326 72.7389 283.31 69.3324 278.625 65.4237C273.773 61.3473 268.307 56.7124 266.02 53.8647L264.459 51.8544C261.558 48.2806 259.048 44.9862 257.599 38.955C261.001 43.2548 266.522 47.5545 273.773 52.4129C282.028 58.0529 286.043 67.2108 286.099 67.2667C286.434 68.1602 286.657 68.7745 287.27 68.942L287.605 69.1095L288.274 68.7745" fill="white"/>
<path d="M276.673 47.2762C276.673 47.2762 273.884 34.2654 268.641 26.6147C263.51 18.9644 252.913 12.3752 241.87 9.24805C245.774 12.3752 248.173 15.2229 249.567 17.5126C250.961 19.8021 259.606 32.5896 263.511 36.6106C267.471 40.687 273.829 44.2049 276.673 47.2762" fill="#FFD700"/>
<path d="M241.367 9.86232C245.606 13.157 247.781 16.0608 248.897 17.9033C250.235 20.137 258.936 33.0362 263.007 37.1685L270.481 43.2551L276.17 47.7782L277.453 47.1081C277.341 46.5497 274.552 33.8738 269.31 26.1676C264.123 18.5733 253.693 11.8163 242.092 8.52197L241.367 9.86218L241.367 9.86232ZM271.374 42.0269L264.067 36.052C260.163 32.0873 251.518 19.1879 250.235 17.1218C249.064 15.2232 247.279 13.2687 245.216 11.2587C255.032 14.7767 263.621 20.5284 268.027 27.0618C271.82 32.6459 274.385 41.2454 275.389 45.2659C273.716 43.8698 271.374 42.0271 271.374 42.0271" fill="white"/>
<path d="M172.328 176H159.25V89.3047L133.023 98.9375V87.125L170.289 73.1328H172.328V176Z" fill="#FFD700"/>
</svg>
