<svg width="215" height="215" viewBox="0 0 215 215" fill="none" xmlns="http://www.w3.org/2000/svg">
<g clip-path="url(#clip0)">
<path d="M215 184.777C215 183.938 214.689 183.107 214.091 182.469C213.78 182.134 213.972 182.31 208.282 178.043C204.075 174.887 201.563 169.864 201.563 164.606C201.563 162.751 200.059 161.247 198.204 161.247H197.082C190.675 145.744 186.978 130.573 185.16 114.209C190.535 114.002 194.845 109.566 194.845 104.141C194.845 98.9319 190.8 94.0636 184.406 94.0636C188.77 89.7924 191.486 83.8425 191.486 77.2678C191.486 64.3018 180.938 53.7536 167.972 53.7536C155.006 53.7536 144.458 64.3018 144.458 77.2678C144.458 83.8425 147.173 89.7924 151.537 94.0636C145.157 94.0636 141.098 98.9235 141.098 104.141C141.098 109.566 145.408 114.001 150.783 114.209C149.178 128.651 146.144 142.22 140.738 156.505C132.001 136.749 130.481 122.21 128.103 106.754C136.671 103.251 136.376 91.0139 127.662 87.923V80.6269H131.021C132.876 80.6269 134.38 79.1229 134.38 77.2678C134.38 75.4127 132.876 73.9086 131.021 73.9086H129.471L136.61 57.8463C139.573 51.1797 134.686 43.6761 127.401 43.6761H117.584V33.5986H120.943C126.499 33.5986 131.02 29.0776 131.02 23.5211C131.02 17.9647 126.499 13.4436 120.943 13.4436H117.584V10.0845C117.584 4.528 113.063 0.00698853 107.506 0.00698853C101.95 0.00698853 97.4288 4.528 97.4288 10.0845V13.4436H94.0696C88.5132 13.4436 83.9921 17.9647 83.9921 23.5211C83.9921 29.0776 88.5132 33.5986 94.0696 33.5986H97.4288V43.6761H87.6116C80.3172 43.6761 75.4435 51.1889 78.4025 57.8463L85.5411 73.9086H83.9917C82.1366 73.9086 80.6326 75.4127 80.6326 77.2678C80.6326 79.1229 82.1366 80.6269 83.9917 80.6269H87.3509V87.923C78.6309 91.016 78.3496 103.254 86.9091 106.754C84.1303 124.816 82.7325 137.381 74.2749 156.505C68.8759 142.24 65.8354 128.669 64.2293 114.209C69.6044 114.002 73.9142 109.566 73.9142 104.141C73.9142 98.9319 69.8694 94.0636 63.4752 94.0636C67.8396 89.7924 70.5551 83.8425 70.5551 77.2678C70.5551 64.3018 60.0069 53.7536 47.0409 53.7536C34.075 53.7536 23.5268 64.3018 23.5268 77.2678C23.5268 83.8425 26.2422 89.7924 30.6066 94.0636C24.2259 94.0636 20.1676 98.9235 20.1676 104.141C20.1676 109.566 24.4774 114.001 29.8525 114.209C28.0369 130.548 24.3485 145.718 17.9304 161.247H16.8084C14.9533 161.247 13.4493 162.751 13.4493 164.606C13.4493 167.2 12.8358 169.796 11.6748 172.115C9.47411 176.516 6.56969 178.164 1.35627 182.074C0.975001 182.357 0.61725 182.771 0.37665 183.247C-0.10917 184.195 0.0126002 184.271 0.0126002 191.479C0.0126002 197.036 4.53362 201.557 10.0901 201.557H50.4001V204.916C50.4001 210.473 54.9211 214.994 60.4776 214.994H154.534C160.091 214.994 164.612 210.473 164.612 204.916V201.557H204.922C210.478 201.557 214.999 197.036 214.999 191.479C215 187.584 215 188.692 215 184.777ZM201.907 181.402H152.968C151.794 178.218 151.176 174.819 151.176 171.324C151.176 169.469 149.672 167.965 147.817 167.965H195.09C195.833 173.05 198.239 177.797 201.907 181.402ZM61.7532 194.839C66.7118 189.162 69.7098 182.166 70.4018 174.684H144.612C145.304 182.166 148.302 189.162 153.261 194.839C142.592 194.839 72.5584 194.839 61.7532 194.839ZM151.176 77.2678C151.176 68.0066 158.71 60.472 167.972 60.472C177.233 60.472 184.768 68.0066 184.768 77.2678C184.768 86.529 177.233 94.0636 167.972 94.0636C158.71 94.0636 151.176 86.529 151.176 77.2678ZM147.817 104.141C147.817 102.289 149.324 100.782 151.176 100.782H184.768C186.62 100.782 188.127 102.289 188.127 104.141C188.127 105.993 186.62 107.5 184.768 107.5C177.964 107.5 157.912 107.5 151.176 107.5C149.324 107.5 147.817 105.993 147.817 104.141ZM157.542 114.219H178.402C180.197 130.39 183.487 145.189 189.83 161.247H146.114C152.473 145.147 155.752 130.345 157.542 114.219ZM94.0701 80.6269H120.943V87.3453H94.0701V80.6269ZM100.788 26.8803H94.0701C92.2179 26.8803 90.7109 25.3733 90.7109 23.5211C90.7109 21.669 92.2179 20.162 94.0701 20.162H100.788C102.643 20.162 104.148 18.6579 104.148 16.8028V10.0845C104.148 8.23232 105.655 6.72532 107.507 6.72532C109.359 6.72532 110.866 8.23232 110.866 10.0845V16.8028C110.866 18.6579 112.37 20.162 114.225 20.162H120.943C122.796 20.162 124.303 21.669 124.303 23.5211C124.303 25.3733 122.796 26.8803 120.943 26.8803H114.225C112.37 26.8803 110.866 28.3844 110.866 30.2395V43.6761H104.148V30.2395C104.148 28.3844 102.643 26.8803 100.788 26.8803ZM87.6125 50.3945H127.402C129.835 50.3945 131.461 52.8899 130.472 55.1179L122.12 73.9086H92.8943L84.5426 55.1179C83.5546 52.8937 85.1741 50.3945 87.6125 50.3945ZM90.7109 94.0636H124.303C126.155 94.0636 127.662 95.5706 127.662 97.4228C127.662 99.2749 126.155 100.782 124.303 100.782H90.7109C88.8587 100.782 87.3517 99.2749 87.3517 97.4228C87.3517 95.5706 88.8587 94.0636 90.7109 94.0636ZM93.593 107.5H121.421C124.258 125.946 126.214 143.865 138.794 167.965H76.2199C76.6372 167.165 77.0332 166.363 77.1445 166.15C89.0011 142.673 90.886 125.098 93.593 107.5ZM30.2459 77.2678C30.2459 68.0066 37.7805 60.472 47.0417 60.472C56.303 60.472 63.8376 68.0066 63.8376 77.2678C63.8376 86.529 56.303 94.0636 47.0417 94.0636C37.7805 94.0636 30.2459 86.529 30.2459 77.2678ZM26.8868 104.141C26.8868 102.289 28.3938 100.782 30.2459 100.782H63.8376C65.6897 100.782 67.1967 102.289 67.1967 104.141C67.1967 105.993 65.6897 107.5 63.8376 107.5C57.034 107.5 36.9823 107.5 30.2459 107.5C28.3938 107.5 26.8868 105.993 26.8868 104.141ZM36.612 114.219H57.4724C59.2666 130.39 62.5573 145.189 68.9003 161.247H25.1841C31.5434 145.147 34.8219 130.345 36.612 114.219ZM19.9249 167.965H67.1967C65.3416 167.965 63.8376 169.469 63.8376 171.324C63.8376 174.819 63.2203 178.218 62.0463 181.402H13.1049C16.7118 177.86 19.1632 173.21 19.9249 167.965ZM6.73177 191.479V188.12H58.4948C56.6867 190.664 55.3183 191.888 52.3681 194.839H10.0909C8.23877 194.839 6.73177 193.332 6.73177 191.479ZM157.894 204.916C157.894 206.768 156.387 208.275 154.535 208.275H60.4784C58.6262 208.275 57.1192 206.768 57.1192 204.916V201.557H157.894V204.916ZM208.282 191.479C208.282 193.332 206.775 194.839 204.922 194.839H162.645C159.629 191.822 158.298 190.624 156.519 188.12H208.282V191.479Z" fill="black"/>
</g>
<defs>
<clipPath id="clip0">
<rect width="215" height="215" fill="white"/>
</clipPath>
</defs>
</svg>
