<svg width="82" height="82" viewBox="0 0 82 82" fill="none" xmlns="http://www.w3.org/2000/svg">
<path d="M22.3639 8.19995C20.2316 8.19995 18.4303 9.78181 18.1548 11.8962L18.04 12.7772V35.7815V59.04H13.12V59.04C10.4028 59.04 8.20001 61.2427 8.20001 63.96V64.2584C8.20001 68.8029 8.47881 69.7557 10.3615 71.6384L10.7338 71.9728C11.1768 72.3707 11.6697 72.7092 12.2001 72.9798V72.9798C12.8099 73.291 13.4629 73.5091 14.1374 73.6269L14.3946 73.6718C14.8828 73.7571 15.3776 73.8 15.8733 73.8H34.44H53.2987C55.2564 73.8 57.1339 73.0225 58.5185 71.6384V71.6384L59.1021 71.0086C59.8684 70.1814 60.2941 69.0955 60.2941 67.9679V67.9679L60.68 46.2184V22.96H67.24H68.5815C71.4636 22.96 73.8 20.6236 73.8 17.7415V17.7415C73.8 13.197 73.5212 12.2442 71.6385 10.3615V10.3615C70.2539 8.97745 68.3764 8.19995 66.4187 8.19995H45.92H22.3639V8.19995ZM57.8978 12.7772C57.6239 13.4906 57.4 17.1445 57.4 20.8968V27.7192L54.94 28.577C52.0044 29.6003 51.4919 32.695 54.143 33.3887C55.2713 33.6831 55.6608 34.2809 55.3541 35.246C55.1065 36.0283 55.4648 37.1345 56.1512 37.7044C57.0843 38.4785 57.4 40.4456 57.4 45.4804V52.22L54.12 53.2032C51.774 53.9059 50.84 54.6341 50.84 55.76C50.84 56.8858 51.774 57.614 54.12 58.3167C57.1598 59.2277 57.3992 59.5156 57.3877 62.2445C57.368 67.0112 55.7805 69.29 52.48 69.29C49.1533 69.29 47.5912 67.0071 47.5723 62.115V62.115C47.5655 60.4147 46.1853 59.04 44.485 59.04H34.44H21.32V50.1003V41.1607L23.78 40.303C25.4618 39.7167 26.24 38.8999 26.24 37.72C26.24 36.54 25.4618 35.7233 23.78 35.137L21.32 34.2792V25.8029C21.32 16.3311 22.0695 13.4242 24.7927 12.3303C25.8144 11.9195 33.793 11.5603 42.5228 11.5316C56.6727 11.4857 58.3414 11.621 57.8978 12.7772ZM44.28 65.1227C44.28 66.6643 44.5129 68.5331 44.7974 69.2744C45.2689 70.5027 43.9438 70.6003 30.0653 70.3666C13.3012 70.0845 12.7986 69.9361 11.8056 64.9743L11.275 62.32H27.7775H44.28V65.1227ZM68.7751 13.4029C69.2785 14.0097 69.9231 15.6702 70.2076 17.0929L70.725 19.68H65.6H60.475L60.9924 17.0929C61.696 13.5759 62.9227 12.3 65.6 12.3C66.8423 12.3 68.2716 12.7961 68.7751 13.4029Z" fill="black" stroke="black"/>
<path d="M29.11 40.1801C27.9095 42.1235 30.0735 42.6401 39.4084 42.6401C48.6531 42.6401 49.2 42.5483 49.2 41.0001C49.2 39.4519 48.6531 39.3601 39.4084 39.3601C33.7651 39.3601 29.4019 39.7078 29.11 40.1801Z" fill="black" stroke="black"/>
<path d="M29.11 27.06C27.9095 29.0034 30.0735 29.52 39.4084 29.52C48.6531 29.52 49.2 29.4282 49.2 27.88C49.2 26.3318 48.6531 26.24 39.4084 26.24C33.7651 26.24 29.4019 26.5877 29.11 27.06Z" fill="black" stroke="black"/>
<path d="M29.11 46.7399C28.0022 48.5324 29.9054 49.1999 36.1284 49.1999C42.0931 49.1999 42.64 49.0622 42.64 47.5599C42.64 46.0577 42.0931 45.9199 36.1284 45.9199C32.5466 45.9199 29.3888 46.2889 29.11 46.7399Z" fill="black" stroke="black"/>
<path d="M29.11 33.62C28.0022 35.4126 29.9054 36.08 36.1284 36.08C42.0931 36.08 42.64 35.9423 42.64 34.44C42.64 32.9378 42.0931 32.8 36.1284 32.8C32.5466 32.8 29.3888 33.169 29.11 33.62Z" fill="black" stroke="black"/>
</svg>
